{
  "accessors": [
    {
      "bufferView": 2,
      "componentType": 5126,
      "count": 20757,
      "max": [
        -2.9395999908447266,
        47.64690017700195,
        -2.6270999908447266
      ],
      "min": [
        -7.49459981918335,
        -6.1570000648498535,
        -12.72920036315918
      ],
      "type": "VEC3"
    },
    {
      "bufferView": 2,
      "byteOffset": 249084,
      "componentType": 5126,
      "count": 20757,
      "max": [
        1.0,
        1.0,
        1.0
      ],
      "min": [
        -1.0,
        -1.0,
        -1.0
      ],
      "type": "VEC3"
    },
    {
      "bufferView": 1,
      "componentType": 5126,
      "count": 20757,
      "max": [
        0.9952999949455261,
        -0.0038999998942017555
      ],
      "min": [
        0.0031999999191612005,
        -0.9962999820709229
      ],
      "type": "VEC2"
    },
    {
      "bufferView": 0,
      "componentType": 5125,
      "count": 65604,
      "type": "SCALAR"
    },
    {
      "bufferView": 2,
      "byteOffset": 498168,
      "componentType": 5126,
      "count": 50,
      "max": [
        -3.6377999782562256,
        19.359500885009766,
        -10.146100044250488
      ],
      "min": [
        -5.726799964904785,
        6.221399784088135,
        -12.235099792480469
      ],
      "type": "VEC3"
    },
    {
      "bufferView": 2,
      "byteOffset": 498768,
      "componentType": 5126,
      "count": 50,
      "max": [
        0.1178043782711029,
        1.0,
        0.11770575493574142
      ],
      "min": [
        -0.11770575493574142,
        -1.0,
        -0.1178043782711029
      ],
      "type": "VEC3"
    },
    {
      "bufferView": 1,
      "byteOffset": 166056,
      "componentType": 5126,
      "count": 50,
      "max": [
        1.001099944114685,
        0.0006000000284984708
      ],
      "min": [
        -0.0007999999797903001,
        -0.9994000196456909
      ],
      "type": "VEC2"
    },
    {
      "bufferView": 0,
      "byteOffset": 262416,
      "componentType": 5125,
      "count": 144,
      "type": "SCALAR"
    }
  ],
  "asset": {
    "extras": {
      "author": "Otrowero (https://sketchfab.com/Otrowero)",
      "license": "CC-BY-4.0 (http://creativecommons.org/licenses/by/4.0/)",
      "source": "https://sketchfab.com/3d-models/awp-cyber-bdd9ab89cc054f29974b7f16e8bcac30",
      "title": "AWP Cyber"
    },
    "generator": "Sketchfab-12.68.0",
    "version": "2.0"
  },
  "bufferViews": [
    {
      "buffer": 0,
      "byteLength": 262992,
      "name": "floatBufferViews",
      "target": 34963
    },
    {
      "buffer": 0,
      "byteLength": 166456,
      "byteOffset": 262992,
      "byteStride": 8,
      "name": "floatBufferViews",
      "target": 34962
    },
    {
      "buffer": 0,
      "byteLength": 499368,
      "byteOffset": 429448,
      "byteStride": 12,
      "name": "floatBufferViews",
      "target": 34962
    }
  ],
  "buffers": [
    {
      "byteLength": 928816,
      "uri": "scene.bin"
    }
  ],
  "images": [
    {
      "uri": "textures/Material__72_baseColor.png"
    }
  ],
  "materials": [
    {
      "doubleSided": true,
      "name": "Material__72",
      "pbrMetallicRoughness": {
        "baseColorTexture": {
          "index": 0
        },
        "metallicFactor": 0.0,
        "roughnessFactor": 0.0
      }
    },
    {
      "doubleSided": true,
      "name": "Material__73",
      "pbrMetallicRoughness": {
        "metallicFactor": 0.0,
        "roughnessFactor": 0.6
      }
    }
  ],
  "meshes": [
    {
      "name": "Object_0",
      "primitives": [
        {
          "attributes": {
            "NORMAL": 1,
            "POSITION": 0,
            "TEXCOORD_0": 2
          },
          "indices": 3,
          "material": 0,
          "mode": 4
        }
      ]
    },
    {
      "name": "Object_1",
      "primitives": [
        {
          "attributes": {
            "NORMAL": 5,
            "POSITION": 4,
            "TEXCOORD_0": 6
          },
          "indices": 7,
          "material": 1,
          "mode": 4
        }
      ]
    }
  ],
  "nodes": [
    {
      "children": [
        1
      ],
      "matrix": [
        1.0,
        2.8327693431939995e-16,
        -2.8327693431939985e-16,
        0.0,
        2.832769343193999e-16,
        -2.2204460492503128e-16,
        1.0,
        0.0,
        2.832769343193999e-16,
        -1.0,
        -2.2204460492503136e-16,
        0.0,
        -4.440892098500626e-15,
        -15.356301307678214,
        -41.48970031738281,
        1.0
      ],
      "name": "Sketchfab_model"
    },
    {
      "children": [
        2,
        3
      ],
      "name": "AWP.obj.cleaner.materialmerger.gles"
    },
    {
      "mesh": 0,
      "name": "Object_2"
    },
    {
      "mesh": 1,
      "name": "Object_3"
    }
  ],
  "samplers": [
    {
      "magFilter": 9729,
      "minFilter": 9987,
      "wrapS": 10497,
      "wrapT": 10497
    }
  ],
  "scene": 0,
  "scenes": [
    {
      "name": "Sketchfab_Scene",
      "nodes": [
        0
      ]
    }
  ],
  "textures": [
    {
      "sampler": 0,
      "source": 0
    }
  ]
}
