{
  "accessors": [
    {
      "bufferView": 2,
      "componentType": 5126,
      "count": 5682,
      "max": [
        0.88275146484375,
        5.515806674957275,
        1.9900217056274414
      ],
      "min": [
        0.034524768590927124,
        3.4041647911071777,
        -3.4620401859283447
      ],
      "type": "VEC3"
    },
    {
      "bufferView": 2,
      "byteOffset": 68184,
      "componentType": 5126,
      "count": 5682,
      "max": [
        1.0,
        1.0,
        1.0
      ],
      "min": [
        -1.0,
        -1.0,
        -1.0
      ],
      "type": "VEC3"
    },
    {
      "bufferView": 3,
      "componentType": 5126,
      "count": 5682,
      "max": [
        1.0,
        1.0,
        1.0,
        1.0
      ],
      "min": [
        -0.9969534277915955,
        -1.0,
        -1.0,
        -1.0
      ],
      "type": "VEC4"
    },
    {
      "bufferView": 1,
      "componentType": 5126,
      "count": 5682,
      "max": [
        0.997035026550293,
        0.9990019202232361
      ],
      "min": [
        0.0009960390161722898,
        0.0009980039903894067
      ],
      "type": "VEC2"
    },
    {
      "bufferView": 0,
      "componentType": 5125,
      "count": 19794,
      "type": "SCALAR"
    },
    {
      "bufferView": 2,
      "byteOffset": 136368,
      "componentType": 5126,
      "count": 6175,
      "max": [
        0.7956351041793823,
        5.677785873413086,
        7.987389087677002
      ],
      "min": [
        0.11631637811660767,
        3.841824531555176,
        1.1454328298568726
      ],
      "type": "VEC3"
    },
    {
      "bufferView": 2,
      "byteOffset": 210468,
      "componentType": 5126,
      "count": 6175,
      "max": [
        1.0,
        1.0,
        1.0
      ],
      "min": [
        -1.0,
        -1.0,
        -1.0
      ],
      "type": "VEC3"
    },
    {
      "bufferView": 3,
      "byteOffset": 90912,
      "componentType": 5126,
      "count": 6175,
      "max": [
        1.0,
        1.0,
        1.0,
        1.0
      ],
      "min": [
        -0.9999678134918213,
        -1.0,
        -1.0,
        -1.0
      ],
      "type": "VEC4"
    },
    {
      "bufferView": 1,
      "byteOffset": 45456,
      "componentType": 5126,
      "count": 6175,
      "max": [
        0.9990019798278809,
        0.9812932014465332
      ],
      "min": [
        0.0009980039903894067,
        0.0009803129360079765
      ],
      "type": "VEC2"
    },
    {
      "bufferView": 0,
      "byteOffset": 79176,
      "componentType": 5125,
      "count": 22146,
      "type": "SCALAR"
    },
    {
      "bufferView": 2,
      "byteOffset": 284568,
      "componentType": 5126,
      "count": 3147,
      "max": [
        0.9042304754257202,
        4.660249710083008,
        -3.59382963180542
      ],
      "min": [
        0.013390392065048218,
        2.597578525543213,
        -7.34979772567749
      ],
      "type": "VEC3"
    },
    {
      "bufferView": 2,
      "byteOffset": 322332,
      "componentType": 5126,
      "count": 3147,
      "max": [
        1.0,
        1.0,
        1.0
      ],
      "min": [
        -1.0,
        -1.0,
        -1.0
      ],
      "type": "VEC3"
    },
    {
      "bufferView": 3,
      "byteOffset": 189712,
      "componentType": 5126,
      "count": 3147,
      "max": [
        1.0,
        1.0,
        1.0,
        1.0
      ],
      "min": [
        -0.8890886306762695,
        -1.0,
        -1.0,
        -1.0
      ],
      "type": "VEC4"
    },
    {
      "bufferView": 1,
      "byteOffset": 94856,
      "componentType": 5126,
      "count": 3147,
      "max": [
        0.9797746539115906,
        0.9990019798278809
      ],
      "min": [
        0.0009787959279492497,
        0.0009980039903894067
      ],
      "type": "VEC2"
    },
    {
      "bufferView": 0,
      "byteOffset": 167760,
      "componentType": 5125,
      "count": 8736,
      "type": "SCALAR"
    },
    {
      "bufferView": 2,
      "byteOffset": 360096,
      "componentType": 5126,
      "count": 1114,
      "max": [
        0.6692835688591003,
        3.9014134407043457,
        1.2084965705871582
      ],
      "min": [
        0.2436656802892685,
        1.0810315608978271,
        -0.921650767326355
      ],
      "type": "VEC3"
    },
    {
      "bufferView": 2,
      "byteOffset": 373464,
      "componentType": 5126,
      "count": 1114,
      "max": [
        1.0,
        0.9997639656066895,
        0.9999992847442627
      ],
      "min": [
        -1.0,
        -0.9959745407104492,
        -0.9999979734420776
      ],
      "type": "VEC3"
    },
    {
      "bufferView": 3,
      "byteOffset": 240064,
      "componentType": 5126,
      "count": 1114,
      "max": [
        1.0,
        1.0,
        1.0,
        1.0
      ],
      "min": [
        -0.9178242683410645,
        -0.6012416481971741,
        -1.0,
        1.0
      ],
      "type": "VEC4"
    },
    {
      "bufferView": 1,
      "byteOffset": 120032,
      "componentType": 5126,
      "count": 1114,
      "max": [
        0.9989510774612427,
        0.9823628067970276
      ],
      "min": [
        0.0009980041068047285,
        0.001107680145651102
      ],
      "type": "VEC2"
    },
    {
      "bufferView": 0,
      "byteOffset": 202704,
      "componentType": 5125,
      "count": 2952,
      "type": "SCALAR"
    },
    {
      "bufferView": 2,
      "byteOffset": 386832,
      "componentType": 5126,
      "count": 4702,
      "max": [
        0.9080017805099487,
        4.765649795532227,
        1.1729769706726074
      ],
      "min": [
        0.12832224369049072,
        1.8221516609191895,
        -7.1901469230651855
      ],
      "type": "VEC3"
    },
    {
      "bufferView": 2,
      "byteOffset": 443256,
      "componentType": 5126,
      "count": 4702,
      "max": [
        1.0,
        1.0,
        1.0
      ],
      "min": [
        -1.0,
        -1.0,
        -1.0
      ],
      "type": "VEC3"
    },
    {
      "bufferView": 3,
      "byteOffset": 257888,
      "componentType": 5126,
      "count": 4702,
      "max": [
        1.0,
        1.0,
        1.0,
        1.0
      ],
      "min": [
        -0.9993770122528076,
        -1.0,
        -1.0,
        -1.0
      ],
      "type": "VEC4"
    },
    {
      "bufferView": 1,
      "byteOffset": 128944,
      "componentType": 5126,
      "count": 4702,
      "max": [
        0.9990020394325256,
        0.9848442673683167
      ],
      "min": [
        0.0009980041068047285,
        0.0009838604601100087
      ],
      "type": "VEC2"
    },
    {
      "bufferView": 0,
      "byteOffset": 214512,
      "componentType": 5125,
      "count": 15768,
      "type": "SCALAR"
    }
  ],
  "asset": {
    "extras": {
      "author": "cgmreza (https://sketchfab.com/cgmreza)",
      "license": "CC-BY-4.0 (http://creativecommons.org/licenses/by/4.0/)",
      "source": "https://sketchfab.com/3d-models/cyber-ak-rifle-b52f986906af416eb7064bdb9365544e",
      "title": "cyber Ak rifle"
    },
    "generator": "Sketchfab-12.66.0",
    "version": "2.0"
  },
  "bufferViews": [
    {
      "buffer": 0,
      "byteLength": 277584,
      "name": "floatBufferViews",
      "target": 34963
    },
    {
      "buffer": 0,
      "byteLength": 166560,
      "byteOffset": 277584,
      "byteStride": 8,
      "name": "floatBufferViews",
      "target": 34962
    },
    {
      "buffer": 0,
      "byteLength": 499680,
      "byteOffset": 444144,
      "byteStride": 12,
      "name": "floatBufferViews",
      "target": 34962
    },
    {
      "buffer": 0,
      "byteLength": 333120,
      "byteOffset": 943824,
      "byteStride": 16,
      "name": "floatBufferViews",
      "target": 34962
    }
  ],
  "buffers": [
    {
      "byteLength": 1276944,
      "uri": "scene.bin"
    }
  ],
  "extensionsRequired": [
    "KHR_materials_pbrSpecularGlossiness"
  ],
  "extensionsUsed": [
    "KHR_materials_pbrSpecularGlossiness"
  ],
  "images": [
    {
      "uri": "textures/body_diffuse.jpeg"
    },
    {
      "uri": "textures/body_specularGlossiness.jpeg"
    },
    {
      "uri": "textures/body_normal.png"
    },
    {
      "uri": "textures/front1_diffuse.jpeg"
    },
    {
      "uri": "textures/front1_specularGlossiness.jpeg"
    },
    {
      "uri": "textures/front1_normal.png"
    },
    {
      "uri": "textures/stock_diffuse.jpeg"
    },
    {
      "uri": "textures/stock_specularGlossiness.jpeg"
    },
    {
      "uri": "textures/stock_normal.png"
    },
    {
      "uri": "textures/material_diffuse.jpeg"
    },
    {
      "uri": "textures/material_specularGlossiness.jpeg"
    },
    {
      "uri": "textures/material_normal.png"
    }
  ],
  "materials": [
    {
      "doubleSided": true,
      "extensions": {
        "KHR_materials_pbrSpecularGlossiness": {
          "diffuseFactor": [
            1.0,
            1.0,
            1.0,
            1.0
          ],
          "diffuseTexture": {
            "index": 0
          },
          "glossinessFactor": 0.816250096952702,
          "specularFactor": [
            1.0,
            1.0,
            1.0
          ],
          "specularGlossinessTexture": {
            "index": 1
          }
        }
      },
      "name": "body",
      "normalTexture": {
        "index": 2
      }
    },
    {
      "doubleSided": true,
      "extensions": {
        "KHR_materials_pbrSpecularGlossiness": {
          "diffuseFactor": [
            1.0,
            1.0,
            1.0,
            1.0
          ],
          "diffuseTexture": {
            "index": 3
          },
          "glossinessFactor": 0.7980420149920557,
          "specularFactor": [
            1.0,
            1.0,
            1.0
          ],
          "specularGlossinessTexture": {
            "index": 4
          }
        }
      },
      "name": "front1",
      "normalTexture": {
        "index": 5
      }
    },
    {
      "doubleSided": true,
      "extensions": {
        "KHR_materials_pbrSpecularGlossiness": {
          "diffuseFactor": [
            1.0,
            1.0,
            1.0,
            1.0
          ],
          "diffuseTexture": {
            "index": 6
          },
          "glossinessFactor": 0.816250096952702,
          "specularFactor": [
            1.0,
            1.0,
            1.0
          ],
          "specularGlossinessTexture": {
            "index": 7
          }
        }
      },
      "name": "stock",
      "normalTexture": {
        "index": 8
      }
    },
    {
      "doubleSided": true,
      "extensions": {
        "KHR_materials_pbrSpecularGlossiness": {
          "diffuseFactor": [
            1.0,
            1.0,
            1.0,
            1.0
          ],
          "diffuseTexture": {
            "index": 9
          },
          "glossinessFactor": 0.7980420149920557,
          "specularFactor": [
            1.0,
            1.0,
            1.0
          ],
          "specularGlossinessTexture": {
            "index": 10
          }
        }
      },
      "name": "material",
      "normalTexture": {
        "index": 11
      }
    }
  ],
  "meshes": [
    {
      "name": "AK_Body_body_0",
      "primitives": [
        {
          "attributes": {
            "NORMAL": 1,
            "POSITION": 0,
            "TANGENT": 2,
            "TEXCOORD_0": 3
          },
          "indices": 4,
          "material": 0,
          "mode": 4
        }
      ]
    },
    {
      "name": "AK_Barrel_front1_0",
      "primitives": [
        {
          "attributes": {
            "NORMAL": 6,
            "POSITION": 5,
            "TANGENT": 7,
            "TEXCOORD_0": 8
          },
          "indices": 9,
          "material": 1,
          "mode": 4
        }
      ]
    },
    {
      "name": "AK_Stok_stock_0",
      "primitives": [
        {
          "attributes": {
            "NORMAL": 11,
            "POSITION": 10,
            "TANGENT": 12,
            "TEXCOORD_0": 13
          },
          "indices": 14,
          "material": 2,
          "mode": 4
        }
      ]
    },
    {
      "name": "AK_Mag_mag_0",
      "primitives": [
        {
          "attributes": {
            "NORMAL": 16,
            "POSITION": 15,
            "TANGENT": 17,
            "TEXCOORD_0": 18
          },
          "indices": 19,
          "material": 3,
          "mode": 4
        }
      ]
    },
    {
      "name": "AK_Grip_mag_0",
      "primitives": [
        {
          "attributes": {
            "NORMAL": 21,
            "POSITION": 20,
            "TANGENT": 22,
            "TEXCOORD_0": 23
          },
          "indices": 24,
          "material": 3,
          "mode": 4
        }
      ]
    }
  ],
  "nodes": [
    {
      "children": [
        1
      ],
      "matrix": [
        6.393381118774414,
        0.0,
        0.0,
        0.0,
        0.0,
        1.4196157846534194e-15,
        -6.393381118774414,
        0.0,
        0.0,
        6.393381118774414,
        1.4196157846534194e-15,
        0.0,
        0.0,
        0.0,
        0.0,
        1.0
      ],
      "name": "Sketchfab_model"
    },
    {
      "children": [
        2
      ],
      "matrix": [
        0.009999999776482582,
        0.0,
        0.0,
        0.0,
        0.0,
        0.0,
        0.009999999776482582,
        0.0,
        0.0,
        -0.009999999776482582,
        0.0,
        0.0,
        0.0,
        0.0,
        0.0,
        1.0
      ],
      "name": "c8f278f4b69a41af9d8d9d2987d86aeb.fbx"
    },
    {
      "children": [
        3,
        5,
        7,
        9,
        11
      ],
      "name": "RootNode"
    },
    {
      "children": [
        4
      ],
      "name": "AK_Body"
    },
    {
      "mesh": 0,
      "name": "AK_Body_body_0"
    },
    {
      "children": [
        6
      ],
      "name": "AK_Barrel"
    },
    {
      "mesh": 1,
      "name": "AK_Barrel_front1_0"
    },
    {
      "children": [
        8
      ],
      "name": "AK_Stok"
    },
    {
      "mesh": 2,
      "name": "AK_Stok_stock_0"
    },
    {
      "children": [
        10
      ],
      "name": "AK_Mag"
    },
    {
      "mesh": 3,
      "name": "AK_Mag_mag_0"
    },
    {
      "children": [
        12
      ],
      "name": "AK_Grip"
    },
    {
      "mesh": 4,
      "name": "AK_Grip_mag_0"
    }
  ],
  "samplers": [
    {
      "magFilter": 9729,
      "minFilter": 9987,
      "wrapS": 10497,
      "wrapT": 10497
    }
  ],
  "scene": 0,
  "scenes": [
    {
      "name": "Sketchfab_Scene",
      "nodes": [
        0
      ]
    }
  ],
  "textures": [
    {
      "sampler": 0,
      "source": 0
    },
    {
      "sampler": 0,
      "source": 1
    },
    {
      "sampler": 0,
      "source": 2
    },
    {
      "sampler": 0,
      "source": 3
    },
    {
      "sampler": 0,
      "source": 4
    },
    {
      "sampler": 0,
      "source": 5
    },
    {
      "sampler": 0,
      "source": 6
    },
    {
      "sampler": 0,
      "source": 7
    },
    {
      "sampler": 0,
      "source": 8
    },
    {
      "sampler": 0,
      "source": 9
    },
    {
      "sampler": 0,
      "source": 10
    },
    {
      "sampler": 0,
      "source": 11
    }
  ]
}
